<?xml version="1.0" encoding="utf-8"?>
<!-- Generator: Adobe Illustrator 28.1.0, SVG Export Plug-In . SVG Version: 6.00 Build 0)  -->
<svg version="1.1" id="Слой_1" xmlns="http://www.w3.org/2000/svg" xmlns:xlink="http://www.w3.org/1999/xlink" x="0px" y="0px"
	 viewBox="0 0 360 120" style="enable-background:new 0 0 360 120;" xml:space="preserve">
<style type="text/css">
	.st0{display:none;}
	.st1{fill:#FFFFFF;}
	.st2{enable-background:new    ;}
</style>
<g id="Слой_1_00000110453286620777066880000017385880062103740063_" class="st0">
	
		<image style="display:inline;overflow:visible;enable-background:new    ;" width="641" height="144" xlink:href="145D75B7.png"  transform="matrix(0.5616 0 0 0.8333 0 0)">
	</image>
</g>
<g id="Слой_4">
	<rect id="block" x="36.4" y="6.4" class="st1" width="5" height="5"/>
	<polygon class="st1" points="81.9,41.8 81.9,46.9 76.8,46.9 76.8,57 66.7,57 66.7,51.9 66.5,51.9 66.5,41.8 66.7,41.8 66.7,46.9 
		71.8,46.9 71.8,41.8 	"/>
	<path class="st1" d="M76.6,31.7c-2.3-2-4.8-3.7-7.4-5c-0.9-0.5-1.8-0.9-2.7-1.2v1.2h-4.8v5H51.6v-9.2c-3.5,0-6.9,0.6-10.1,1.5v2.6
		h5.1v15.2h5v5.1h10.1v5h4.8v5h-4.8v-5h-5.1v5h-5V62h5v5.1h5.1v-5h4.8v5h-4.8v5.1h4.8v15.2h-9.9v-5.1h5.1v-5.1H51.6v-5.1h-5v-5.1
		h-5.1v-5h5.1V57h-10V46.9h5v-5.1h-5V31.7h5v-5h-5v-0.8c0,0-0.1,0-0.1,0c-3.7,1.7-7.2,4-10.1,6.8c-1.3,1.3-2.6,2.6-3.7,4.1
		c-2.8,3.5-5,7.6-6.4,12c-1.1,3.5-1.7,7.3-1.7,11.2c0,2.4,0.2,4.8,0.7,7.1c0.3,1.4,0.6,2.8,1,4.1c0.1,0.3,0.2,0.6,0.3,0.9
		c1.1,3.3,2.7,6.5,4.7,9.3c3.1,4.4,7.1,8.1,11.8,10.9c1.1,0.6,2.2,1.2,3.4,1.8c0,0,0.1,0,0.1,0v-6.9h10v9.8c1.7,0.2,3.3,0.4,5,0.4
		v-5.2h14.9v2.2c0.1,0,0.2-0.1,0.2-0.1c1.8-0.8,3.4-1.6,5.1-2.6C82.4,85.2,89.5,73.4,89.5,60C89.5,48.7,84.5,38.6,76.6,31.7z
		 M41.5,77.2h-5v-5.1h5V77.2z M66.5,41.8h-9.9v-5h9.9V41.8z"/>
	<rect x="46.5" y="46.9" class="st1" width="5" height="10.1"/>
	<rect id="block-13" x="46.5" y="62" class="st1" width="5" height="5.1"/>
	<rect id="block-16" x="51.6" y="67.1" class="st1" width="5" height="5.1"/>
</g>
<g id="Слой_2_00000049189399569568857100000017229960867026007937_">
	<path class="st1" d="M0.5,6.5v107h359V6.5H0.5z M5.5,108.5v-97h93v97H5.5z M354.5,108.5h-251v-97h251V108.5z"/>
	<g class="st2">
		<path class="st1" d="M166.6,73.8h5.2h0c1.9,0,3.6,0.7,4.9,2c1.3,1.4,2,3,2,4.9s-0.7,3.6-2,4.9c-1.4,1.4-3,2-4.9,2h0h0h-5.2V73.8z
			 M171.7,85.7L171.7,85.7L171.7,85.7c1.4,0,2.6-0.5,3.6-1.5c1-1,1.4-2.1,1.4-3.5s-0.5-2.5-1.4-3.5c-1-1-2.1-1.4-3.5-1.4h0h0h-3.2
			v9.9H171.7z"/>
		<path class="st1" d="M180.2,73.8h2v13.9h-2V73.8z"/>
		<path class="st1" d="M184.8,86.5c-0.6-0.6-1.1-1.4-1.2-2.3h2c0.1,0.4,0.3,0.6,0.5,0.9c0.4,0.4,0.9,0.6,1.5,0.6
			c0.6,0,1.1-0.2,1.5-0.6s0.6-0.9,0.6-1.4s-0.2-1-0.6-1.4c-0.4-0.4-0.9-0.6-1.5-0.6h0c-0.2,0-0.4,0-0.6,0c-0.1,0-0.1,0-0.1,0
			c0,0-0.1,0-0.2,0l-0.1,0c-0.1,0-0.1,0-0.3-0.1l-0.1,0c-0.1,0-0.1,0-0.3-0.1l0,0c-0.1,0-0.2-0.1-0.3-0.1c0,0,0,0,0,0
			c-0.1,0-0.2-0.1-0.3-0.2h0v0c-0.1-0.1-0.2-0.1-0.3-0.2c-0.1-0.1-0.2-0.1-0.2-0.2c-0.8-0.8-1.2-1.7-1.2-2.8c0-1.1,0.4-2,1.2-2.8
			c0.8-0.8,1.8-1.2,2.9-1.2s2.1,0.4,2.9,1.2c0.6,0.6,1.1,1.4,1.2,2.3h-2c-0.1-0.4-0.3-0.6-0.5-0.9c-0.4-0.4-0.9-0.6-1.5-0.6
			c-0.6,0-1.1,0.2-1.5,0.6c-0.4,0.4-0.6,0.9-0.6,1.4c0,0.6,0.2,1,0.6,1.4c0.4,0.4,0.9,0.6,1.5,0.6c0.1,0,0.3,0,0.4,0h0h0l0.3,0
			c0,0,0,0,0,0h0c0.1,0,0.2,0,0.3,0.1c0,0,0,0,0.1,0l0,0c0.1,0,0.2,0.1,0.3,0.1c0,0,0,0,0.1,0c0.1,0,0.1,0.1,0.2,0.1
			c0.1,0,0.1,0,0.1,0.1c0.1,0,0.1,0.1,0.2,0.1c0,0,0.1,0,0.1,0.1s0.1,0.1,0.2,0.1l0,0c0,0,0,0,0,0c0,0,0,0,0,0c0,0,0,0,0,0h0
			c0.1,0.1,0.2,0.1,0.2,0.2c0.8,0.8,1.2,1.7,1.2,2.8c0,1.1-0.4,2-1.2,2.8c-0.8,0.8-1.8,1.2-2.9,1.2S185.6,87.3,184.8,86.5z"/>
		<path class="st1" d="M197.4,75.8h-4.2v-2h10.4v2h-4.2v11.9h-2V75.8z"/>
		<path class="st1" d="M205.1,73.8h6.9c1.1,0,2,0.4,2.8,1.2c0.8,0.8,1.2,1.7,1.2,2.8c0,1.1-0.4,2-1.2,2.8c-0.8,0.8-1.7,1.2-2.8,1.2
			h-2.1l6,6H213l-6-6h0v6h-2V73.8z M212,79.8c0.6,0,1-0.2,1.4-0.6c0.4-0.4,0.6-0.8,0.6-1.4c0-0.6-0.2-1-0.6-1.4
			c-0.4-0.4-0.9-0.6-1.4-0.6h-4.9v4H212z"/>
		<path class="st1" d="M217.4,73.8h2v13.9h-2V73.8z"/>
		<path class="st1" d="M220.9,73.8h6.9c1.1,0,2.1,0.4,2.9,1.2c0.8,0.8,1.2,1.7,1.2,2.8c0,1.2-0.5,2.2-1.4,3c0.9,0.8,1.4,1.8,1.4,3
			c0,1.1-0.4,2-1.2,2.8c-0.8,0.8-1.8,1.2-2.9,1.2h-6.9V73.8z M227.8,79.8c0.6,0,1.1-0.2,1.5-0.6s0.6-0.8,0.6-1.4
			c0-0.6-0.2-1-0.6-1.4c-0.4-0.4-0.9-0.6-1.5-0.6h-4.9v4H227.8z M227.8,85.7c0.6,0,1.1-0.2,1.5-0.6s0.6-0.9,0.6-1.4s-0.2-1-0.6-1.4
			c-0.4-0.4-0.9-0.6-1.5-0.6h-4.9v4H227.8z"/>
		<path class="st1" d="M235.1,85.9c-1.2-1.2-1.8-2.7-1.8-4.4v0v0v-7.6h2v7.6v0v0c0,1.2,0.4,2.1,1.2,3c0.8,0.8,1.8,1.2,3,1.2
			c0.8,0,1.5-0.2,2.1-0.6c0.6-0.4,1.2-0.9,1.5-1.5c0.4-0.6,0.6-1.3,0.6-2.1v0v-7.6h2v7.6v0v0c0,1.7-0.6,3.1-1.8,4.4
			c-1.2,1.2-2.7,1.8-4.4,1.8S236.4,87.1,235.1,85.9z"/>
		<path class="st1" d="M251.4,75.8h-4.2v-2h10.4v2h-4.2v11.9h-2V75.8z"/>
		<path class="st1" d="M259,73.8h2v13.9h-2V73.8z"/>
		<path class="st1" d="M264.5,85.7c-1.4-1.3-2-3-2-4.9s0.7-3.6,2-4.9c1.3-1.4,3-2,4.9-2c1.3,0,2.4,0.3,3.5,0.9
			c1.1,0.6,1.9,1.5,2.5,2.5c0.6,1.1,0.9,2.2,0.9,3.5c0,1.9-0.7,3.6-2,4.9c-1.4,1.4-3,2-4.9,2C267.5,87.7,265.8,87,264.5,85.7z
			 M272.9,84.2c1-1,1.4-2.1,1.4-3.5s-0.5-2.5-1.4-3.5c-1-1-2.2-1.4-3.5-1.4c-0.9,0-1.7,0.2-2.5,0.7c-0.8,0.5-1.4,1.1-1.8,1.8
			c-0.5,0.8-0.7,1.6-0.7,2.5c0,1.4,0.5,2.5,1.5,3.5c1,1,2.1,1.5,3.5,1.5S271.9,85.2,272.9,84.2z"/>
		<path class="st1" d="M288.8,87.7l-9-9v9h-2V73.8l9.1,9.1v-9h2L288.8,87.7L288.8,87.7z"/>
	</g>
	<g class="st2">
		<path class="st1" d="M117.4,62.6c-3.4-3.4-5.1-7.4-5.1-12.2c0-1.9,0.3-3.7,0.9-5.5c0.5-1.7,1.4-3.4,2.5-4.8
			c1.1-1.4,2.3-2.6,3.8-3.7c1.4-1,3-1.9,4.7-2.5c1.7-0.6,3.6-0.9,5.5-0.9c4.8,0,8.9,1.7,12.3,5.1l-3.5,3.5c-2.4-2.5-5.3-3.7-8.7-3.7
			s-6.4,1.2-8.8,3.6c-2.5,2.5-3.7,5.3-3.7,8.8s1.2,6.4,3.7,8.8c2.4,2.5,5.3,3.7,8.8,3.7s6.3-1.2,8.7-3.6l3.5,3.5
			c-3.4,3.4-7.5,5.1-12.3,5.1S120.8,66,117.4,62.6z"/>
		<path class="st1" d="M145.6,32.9h5v11.5c2.3-1.9,5-2.8,8-2.8c3.6,0,6.7,1.3,9.2,3.8c2.5,2.6,3.8,5.6,3.8,9.2v13h-5v-13
			c0-2.2-0.8-4.1-2.3-5.7c-1.6-1.6-3.5-2.3-5.7-2.3s-4.1,0.8-5.6,2.3c-1.6,1.6-2.4,3.5-2.4,5.7v13h-5V32.9z"/>
		<path class="st1" d="M179.1,63.8c-2.6-2.5-3.8-5.6-3.8-9.2s1.3-6.7,3.8-9.2c2.5-2.5,5.6-3.8,9.2-3.8c3.6,0,6.7,1.3,9.2,3.8
			c2.5,2.6,3.8,5.6,3.8,9.2c0,0.9-0.1,1.7-0.3,2.6h-20.3c0.4,1,0.9,2,1.7,2.8c0.7,0.8,1.6,1.5,2.6,1.9c1,0.5,2.1,0.7,3.2,0.7
			c1.5,0,2.9-0.4,4.2-1.2l3.5,3.6c-2.3,1.7-4.9,2.6-7.7,2.6C184.7,67.7,181.6,66.4,179.1,63.8z M196,52.4c-0.2-0.8-0.6-1.6-1.1-2.3
			c-0.5-0.7-1.1-1.3-1.7-1.8s-1.4-0.9-2.3-1.2c-0.8-0.3-1.7-0.4-2.6-0.4c-1.8,0-3.4,0.5-4.8,1.6c-1.4,1.1-2.4,2.5-2.9,4.1H196z"/>
		<path class="st1" d="M204.9,54.6c0-3.6,1.3-6.7,3.8-9.2c2.5-2.5,5.6-3.8,9.2-3.8c0.8,0,1.7,0.1,2.5,0.2s1.6,0.4,2.4,0.7
			c0.7,0.3,1.4,0.7,2.1,1.1s1.3,0.9,1.9,1.4s1.1,1.2,1.6,1.9c1.3-1.7,2.8-3,4.6-4c1.9-1,3.8-1.4,5.9-1.4c2.3,0,4.6,0.6,6.5,1.7
			c2,1.1,3.6,2.8,4.7,4.7c1.1,2,1.7,4.2,1.7,6.5v13h-5v-13c0-1.4-0.4-2.8-1.1-4s-1.7-2.2-2.9-2.9c-1.3-0.7-2.6-1.1-4-1.1
			c-1.4,0-2.8,0.4-4,1.1c-1.3,0.7-2.2,1.7-2.9,2.9c-0.7,1.3-1.1,2.6-1.1,4v0.1v13h-5v-13v-0.1c0-2.2-0.8-4.1-2.3-5.6
			c-1.6-1.6-3.5-2.3-5.7-2.3s-4.1,0.8-5.6,2.3c-1.6,1.6-2.4,3.5-2.4,5.7v13h-5V54.6z"/>
		<path class="st1" d="M256.4,37.2c-0.5-0.5-0.7-1.1-0.7-1.7s0.2-1.3,0.7-1.8c0.5-0.5,1.1-0.7,1.8-0.7c0.7,0,1.3,0.2,1.7,0.7
			c0.5,0.5,0.7,1.1,0.7,1.8c0,0.4-0.1,0.8-0.3,1.2c-0.2,0.4-0.5,0.7-0.9,0.9c-0.4,0.2-0.8,0.4-1.3,0.4
			C257.5,37.9,256.9,37.7,256.4,37.2z M255.7,41.6h5v26h-5V41.6z"/>
		<path class="st1" d="M268.1,63.8c-2.6-2.5-3.8-5.6-3.8-9.2s1.3-6.7,3.8-9.2c2.5-2.5,5.6-3.8,9.2-3.8s6.7,1.3,9.2,3.8l-3.5,3.5
			c-1.6-1.6-3.5-2.3-5.7-2.3s-4.1,0.8-5.6,2.3c-1.6,1.6-2.4,3.5-2.4,5.7s0.8,4.1,2.4,5.6c1.6,1.6,3.4,2.4,5.6,2.4s4.1-0.8,5.7-2.3
			l3.5,3.5c-2.5,2.6-5.6,3.8-9.2,3.8S270.6,66.4,268.1,63.8z"/>
		<path class="st1" d="M294,63.8c-2.6-2.5-3.8-5.6-3.8-9.2s1.3-6.7,3.8-9.2c2.5-2.5,5.6-3.8,9.2-3.8c3,0,5.7,1,8,2.8v-2.8h5v26h-5
			v-2.8c-2.3,1.9-5,2.8-8,2.8C299.5,67.7,296.5,66.4,294,63.8z M307.2,61.6c1.3-0.7,2.2-1.7,2.9-2.9c0.7-1.3,1.1-2.6,1.1-4
			c0-2.2-0.8-4.1-2.3-5.7c-1.6-1.6-3.5-2.3-5.7-2.3s-4.1,0.8-5.6,2.3c-1.6,1.6-2.4,3.5-2.4,5.7s0.8,4.1,2.4,5.6
			c1.6,1.6,3.4,2.4,5.6,2.4C304.6,62.7,305.9,62.3,307.2,61.6z"/>
		<path class="st1" d="M319.8,32.9h5v34.7h-5V32.9z"/>
		<path class="st1" d="M330.6,65.4c-1.5-1.5-2.3-3.4-2.3-5.5h5c0,0.8,0.3,1.4,0.8,1.9s1.1,0.8,1.9,0.8c0.5,0,1-0.1,1.4-0.4
			s0.7-0.6,1-1c0.2-0.4,0.4-0.9,0.4-1.4c0-0.8-0.2-1.5-0.8-2s-1.3-0.8-2-0.8v0.1c-1.4,0-2.7-0.4-3.8-1.1c-1.2-0.7-2.2-1.6-2.8-2.8
			c-0.7-1.1-1.1-2.5-1.1-3.9c0-2.1,0.8-4,2.3-5.5s3.4-2.3,5.5-2.3c1.1,0,2.1,0.2,3.1,0.6c1,0.4,1.8,1,2.5,1.7s1.3,1.5,1.7,2.5
			s0.6,2,0.6,3h-5c0-0.8-0.2-1.4-0.8-2s-1.2-0.8-2-0.8s-1.4,0.2-2,0.8s-0.8,1.2-0.8,2c0,0.8,0.3,1.4,0.8,2s1.1,0.8,1.9,0.8v-0.1
			c2.2,0,4,0.8,5.5,2.3s2.3,3.4,2.3,5.5c0,2.2-0.8,4-2.3,5.5s-3.4,2.3-5.5,2.3C334,67.7,332.1,66.9,330.6,65.4z"/>
	</g>
</g>
</svg>
